<?xml version="1.0" standalone="no"?>
<!DOCTYPE svg PUBLIC "-//W3C//DTD SVG 20010904//EN"
 "http://www.w3.org/TR/2001/REC-SVG-20010904/DTD/svg10.dtd">
<svg version="1.0" xmlns="http://www.w3.org/2000/svg"
 width="1472.000000pt" height="1472.000000pt" viewBox="0 0 1472.000000 1472.000000"
 preserveAspectRatio="xMidYMid meet">
<metadata>
Created by potrace 1.14, written by Peter Selinger 2001-2017
</metadata>
<g transform="translate(0.000000,1472.000000) scale(0.100000,-0.100000)"
fill="#000000" stroke="none">
<path d="M4196 10603 c-4 -4 -22 -6 -41 -5 l-34 3 0 -1571 c0 -863 -2 -1574
-5 -1579 -4 -5 -838 -9 -2039 -10 -1117 0 -2042 0 -2054 0 -22 -1 -23 -5 -23
-81 0 -76 1 -80 23 -81 12 0 939 -1 2060 -1 l2037 -1 0 -46 c0 -25 2 -734 3
-1576 l2 -1530 370 -3 c204 -1 377 -2 385 -2 8 -1 116 0 240 0 124 0 232 0
240 0 8 -1 332 -1 720 -1 388 1 712 1 720 1 8 -1 116 0 240 0 124 0 232 0 240
0 8 -1 332 -1 720 -1 388 1 712 1 720 1 8 -1 116 0 240 0 124 0 232 0 240 0
280 -4 1392 5 1395 11 3 4 5 189 4 411 0 222 0 410 0 418 0 8 0 152 0 320 -1
168 -1 312 0 320 0 8 0 152 0 320 -1 168 -1 312 0 320 0 8 0 152 0 320 -1 168
-1 312 0 320 0 8 0 71 0 140 0 69 0 132 0 140 0 8 1 38 1 66 l0 52 2038 0
c1120 0 2047 1 2060 1 21 1 22 5 22 81 l0 80 -32 1 c-18 0 -945 0 -2060 1
l-2028 0 -1 37 c-1 20 0 40 1 46 1 5 1 147 0 315 -1 168 -2 312 -1 320 0 8 0
152 0 320 -1 168 -1 312 0 320 0 8 0 152 0 320 -1 168 -1 312 0 320 0 8 0 152
0 320 -1 168 -1 310 -1 315 2 35 3 234 3 366 l-1 157 -71 -2 c-39 0 -73 2 -76
7 -2 4 -12 4 -21 -1 -14 -6 -426 -8 -457 -2 -5 1 -14 1 -20 0 -24 -5 -453 -2
-461 3 -6 3 -15 3 -21 -1 -14 -9 -446 -8 -459 1 -6 3 -15 3 -21 -1 -14 -9
-1406 -8 -1419 1 -6 3 -15 3 -21 -1 -9 -6 -449 -7 -463 -2 -3 1 -9 1 -15 0
-24 -5 -453 -2 -461 3 -6 3 -15 3 -21 -1 -9 -6 -449 -7 -463 -2 -3 1 -9 1 -15
0 -24 -5 -453 -2 -461 3 -6 3 -15 3 -21 -1 -9 -6 -449 -7 -463 -2 -3 1 -9 1
-15 0 -24 -5 -453 -2 -461 3 -6 3 -15 3 -21 -1 -14 -9 -446 -8 -460 1 -6 4
-13 3 -17 0z m6238 -183 c2 -8 3 -1392 2 -3075 l-1 -3060 -3075 0 -3075 0 -1
3070 c0 1689 0 3072 2 3075 1 3 1384 5 3073 5 2722 0 3072 -2 3075 -15z"/>
<path d="M5180 9378 c-28 -10 -40 -25 -40 -51 0 -10 74 -169 165 -354 91 -184
165 -339 165 -344 0 -5 5 -9 10 -9 6 0 10 -5 10 -10 0 -6 63 -140 141 -297 78
-158 145 -296 150 -307 5 -12 13 -28 19 -36 5 -8 92 -184 193 -390 370 -754
479 -976 505 -1025 14 -27 29 -57 33 -65 62 -119 439 -894 439 -901 0 -5 5 -9
10 -9 6 0 10 -5 10 -12 0 -6 52 -117 116 -247 64 -130 137 -278 163 -330 49
-101 73 -122 114 -104 21 10 83 116 79 135 -1 3 5 12 13 18 8 7 15 16 15 21 0
5 66 142 147 306 81 164 148 300 148 303 1 3 30 61 65 130 35 69 64 127 65
130 0 3 74 154 164 335 90 182 249 503 354 715 104 212 262 531 350 710 88
179 160 328 159 333 -1 4 3 7 8 7 6 0 10 4 10 10 0 5 67 147 150 313 82 167
150 309 150 315 0 7 5 12 10 12 6 0 10 4 10 9 0 5 68 146 150 314 83 167 150
312 150 322 0 60 -59 74 -103 25 -15 -16 -27 -32 -27 -35 1 -11 -113 -244
-651 -1330 -65 -133 -119 -246 -119 -252 0 -6 -3 -13 -7 -15 -5 -1 -42 -70
-83 -153 l-75 -149 -1140 1 c-627 1 -1148 2 -1158 2 -12 1 -32 32 -65 99 -26
53 -50 99 -54 100 -5 2 -8 8 -8 14 0 6 -56 125 -125 264 -69 139 -125 258
-125 263 0 6 -4 11 -10 11 -5 0 -10 4 -10 10 0 5 -104 220 -231 477 -347 705
-349 708 -367 720 -11 6 -26 7 -42 1z m3280 -2077 c0 -3 -66 -138 -147 -300
-81 -163 -147 -298 -148 -301 0 -3 -56 -116 -123 -252 -67 -135 -122 -251
-122 -257 0 -6 -4 -11 -10 -11 -5 0 -10 -4 -10 -9 0 -9 -117 -253 -135 -281
-5 -8 -10 -17 -10 -20 0 -3 -54 -113 -119 -245 -66 -132 -154 -311 -196 -397
-57 -115 -81 -153 -89 -145 -6 6 -11 14 -11 18 0 4 -111 232 -246 506 -371
751 -435 882 -432 885 2 2 -6 17 -18 33 -11 17 -30 50 -41 75 -12 25 -88 180
-169 345 -82 165 -147 303 -146 308 1 4 -2 7 -7 7 -12 0 -21 38 -10 42 15 5
2189 3 2189 -1z"/>
</g>
</svg>
